<svg width="359" height="120" viewBox="0 0 359 120" fill="none" xmlns="http://www.w3.org/2000/svg">
<path fill-rule="evenodd" clip-rule="evenodd" d="M152.204 80.3704C155.077 80.3704 157.631 80.8533 159.858 81.8178C162.085 82.7822 163.969 84.1192 165.502 85.8224C167.035 87.5315 168.212 89.5328 169.039 91.834C169.86 94.1354 170.312 96.6086 170.379 99.2579C170.451 99.8499 170.493 100.442 170.505 101.028C170.517 101.608 170.5 102.212 170.452 102.835H143.464L143.573 103.94C143.832 105.014 144.273 105.954 144.9 106.766C145.522 107.578 146.258 108.255 147.11 108.805C147.961 109.354 148.902 109.764 149.94 110.039C150.979 110.314 152.023 110.453 153.085 110.453C154.147 110.453 155.157 110.386 156.111 110.252C157.064 110.123 157.994 109.947 158.887 109.721C159.786 109.49 160.655 109.226 161.506 108.933C162.351 108.634 163.214 108.316 164.083 107.98L167.976 115.319C166.63 116.149 165.399 116.857 164.282 117.443C163.16 118.029 162.038 118.511 160.903 118.89C159.774 119.274 158.566 119.555 157.292 119.732C156.019 119.909 154.534 120 152.838 120C149.657 120 146.827 119.469 144.352 118.407C141.877 117.351 139.794 115.91 138.11 114.097C136.42 112.284 135.141 110.166 134.253 107.73C133.372 105.301 132.926 102.725 132.926 100.009C132.926 97.2863 133.39 94.7336 134.326 92.3529C135.256 89.9661 136.572 87.8848 138.268 86.1085C139.964 84.3322 141.992 82.9343 144.352 81.9087C146.712 80.8832 149.325 80.3704 152.204 80.3704ZM151.921 89.3144C150.599 89.3144 149.476 89.4721 148.541 89.7956C147.611 90.1192 146.827 90.5591 146.193 91.1207C145.553 91.6761 145.046 92.3169 144.672 93.0311C144.292 93.7453 143.995 94.4972 143.784 95.2847H159.097C158.935 94.4728 158.7 93.7095 158.392 92.9953C158.084 92.2811 157.662 91.6519 157.119 91.1025C156.576 90.5531 155.887 90.1192 155.048 89.7956C154.215 89.4721 153.17 89.3144 151.921 89.3144Z" fill="#FFFEFE"/>
<path d="M18.0786 81.9821H25.3999V91.3534H18.0047L17.9326 107.017C17.9327 107.926 18.0063 108.659 18.145 109.215C18.2899 109.776 18.495 110.228 18.7666 110.558C19.0382 110.893 19.3636 111.118 19.7378 111.24C20.118 111.356 20.553 111.417 21.0479 111.417C21.9412 111.417 22.7325 111.326 23.4206 111.149C24.1027 110.972 24.7843 110.758 25.4663 110.52L26.987 117.425C25.7858 118.188 24.4454 118.797 22.9727 119.249C21.4999 119.701 19.7502 119.927 17.7221 119.927C16.2855 119.927 14.9082 119.677 13.6044 119.176C12.2947 118.676 11.1432 117.92 10.1533 116.906C9.16346 115.893 8.37231 114.623 7.78683 113.097C7.19537 111.571 6.91058 109.794 6.93472 107.768L7.04374 91.3534H0V81.9821H7.07506L7.14712 73.1071L18.145 67.8151L18.0786 81.9821Z" fill="#FFFEFE"/>
<path fill-rule="evenodd" clip-rule="evenodd" d="M49.5749 80.871C52.4299 80.871 55.0495 81.3832 57.4457 82.4088C59.8359 83.4342 61.894 84.8263 63.6142 86.5903C65.3344 88.3545 66.6748 90.4177 67.6285 92.7801C68.5822 95.1425 69.0577 97.6695 69.0577 100.361C69.0577 103.059 68.5931 105.593 67.6636 107.962C66.7341 110.336 65.4125 112.412 63.7044 114.188C61.9962 115.965 59.9435 117.363 57.5472 118.388C55.157 119.414 52.4963 119.927 49.5749 119.927C46.6294 119.927 43.9541 119.414 41.5638 118.388C39.1677 117.363 37.1209 115.971 35.4248 114.207C33.7287 112.443 32.414 110.372 31.4844 107.997C30.5549 105.629 30.0847 103.084 30.0847 100.361C30.0847 97.6695 30.5672 95.1425 31.5389 92.7801C32.5047 90.4177 33.8445 88.3545 35.5708 86.5903C37.291 84.8262 39.3436 83.4343 41.7217 82.4088C44.1059 81.3832 46.7199 80.871 49.5749 80.871ZM49.5749 90.7787C48.3496 90.7543 47.196 90.9618 46.1276 91.4074C45.0533 91.8469 44.1117 92.4816 43.2969 93.3178C42.482 94.1541 41.8416 95.1665 41.3708 96.3569C40.894 97.5472 40.6591 98.8843 40.6591 100.361C40.6591 101.772 40.894 103.066 41.3708 104.244C41.8416 105.422 42.482 106.443 43.2969 107.304C44.1117 108.164 45.0533 108.829 46.1276 109.305C47.196 109.781 48.3496 110.019 49.5749 110.019C50.8244 110.019 51.983 109.786 53.0573 109.322C54.1316 108.859 55.0605 108.194 55.8512 107.339C56.6419 106.479 57.2581 105.459 57.7108 104.281C58.1574 103.103 58.3812 101.796 58.3812 100.361C58.3812 98.8843 58.1574 97.5472 57.7108 96.3569C57.2581 95.1665 56.6419 94.1541 55.8512 93.3178C55.0605 92.4816 54.1316 91.8469 53.0573 91.4074C51.983 90.9618 50.8244 90.7543 49.5749 90.7787Z" fill="#FFFEFE"/>
<path fill-rule="evenodd" clip-rule="evenodd" d="M192.342 81.1571C194.624 81.1571 196.743 81.4129 198.686 81.9257C200.636 82.4384 202.301 83.2698 203.689 84.4296C205.084 85.5833 206.177 87.0907 206.961 88.9524C207.752 90.8142 208.15 93.0795 208.15 95.747V109.231H213.065V119.035H197.788V117.034C196.961 117.559 196.206 118.004 195.524 118.371C194.842 118.743 194.154 119.042 193.472 119.268C192.789 119.494 192.083 119.659 191.346 119.768C190.616 119.878 189.819 119.927 188.944 119.927C186.753 119.927 184.791 119.627 183.053 119.017C181.32 118.406 179.861 117.576 178.672 116.514C177.483 115.451 176.564 114.2 175.931 112.759C175.291 111.313 174.977 109.744 174.977 108.053C174.977 106.337 175.296 104.752 175.948 103.299C176.594 101.84 177.53 100.594 178.761 99.5565C179.987 98.5249 181.49 97.7114 183.271 97.1254C185.051 96.5394 187.079 96.2477 189.367 96.2477C191.045 96.2477 192.573 96.3392 193.949 96.5162C195.331 96.6993 196.611 96.9181 197.788 97.1806V96.0331C197.788 95.1053 197.611 94.2996 197.255 93.6221C196.899 92.9384 196.405 92.3838 195.772 91.9382C195.132 91.4987 194.365 91.1753 193.472 90.9739C192.578 90.7724 191.594 90.6683 190.537 90.6683C188.322 90.6683 186.366 90.8932 184.682 91.3327C182.998 91.7722 181.375 92.4131 179.818 93.2431L176.425 86.3086C178.828 84.636 181.345 83.3606 183.977 82.4815C186.602 81.5964 189.391 81.1571 192.342 81.1571ZM189.301 103.939C188.758 103.939 188.226 104.025 187.707 104.19C187.188 104.361 186.723 104.599 186.313 104.904C185.896 105.215 185.564 105.6 185.316 106.051C185.069 106.503 184.948 107.028 184.948 107.627C184.948 108.719 185.34 109.64 186.131 110.379C186.922 111.118 188.117 111.489 189.722 111.489C191.394 111.489 192.916 111.214 194.286 110.665C195.65 110.116 196.822 109.451 197.788 108.664V103.939H189.301Z" fill="#FFFEFE"/>
<path d="M110.472 74.6442H104.81V109.232H116.483C116.785 109.232 117.088 109.147 117.383 108.964C117.679 108.787 117.938 108.555 118.161 108.268C118.385 107.981 118.567 107.675 118.712 107.339C118.85 107.004 118.922 106.68 118.922 106.375V99.1111H130.378V119.035H87.5173V109.232H93.0698V74.6442H87.5173V64.8092H110.472V74.6442Z" fill="#FFFEFE"/>
<path d="M234.527 84.5877C235.565 83.7575 236.737 83.1108 238.035 82.6591C239.326 82.2074 240.744 81.9809 242.277 81.9809C243.828 81.9809 245.435 81.9939 247.088 82.0122C248.736 82.0367 250.269 82.048 251.682 82.048V95.4653H241.746V91.6383C240.781 91.6383 239.894 91.6991 239.091 91.8334C238.294 91.9616 237.587 92.1821 236.99 92.4934C236.386 92.8047 235.879 93.232 235.469 93.7814C235.053 94.3308 234.768 95.008 234.599 95.8198V109.231H242.067V119.035H218.158V109.231H223.638V91.7782H218.224V81.9809H234.527V84.5877Z" fill="#FFFEFE"/>
<path d="M352.06 119.035H287.189V97.7189C287.189 95.6435 286.646 94.0134 285.56 92.8353C284.473 91.6572 283.036 91.0648 281.243 91.0648C280.018 91.0648 278.78 91.3392 277.531 91.8886C276.281 92.4319 275.069 93.4588 273.886 94.9666V109.232H279.832V119.035H257.052V109.232H262.429V91.7788H257.124V81.9809H273.819V85.2345C275.352 84.0198 277.067 83.0555 278.962 82.3535C280.863 81.6515 282.861 81.2989 284.956 81.2989C289.368 81.2989 292.76 82.5428 295.144 85.0394C297.522 87.53 298.718 91.1686 298.718 95.9666V109.232H342.208V88.1494L352.06 79.0717V119.035Z" fill="#FFFEFE"/>
<path fill-rule="evenodd" clip-rule="evenodd" d="M265.3 16.6929C268.176 16.6929 270.729 17.1758 272.957 18.1416C275.185 19.1073 277.065 20.4431 278.598 22.1481C280.13 23.853 281.31 25.8562 282.135 28.1572C282.96 30.4581 283.408 32.9319 283.479 35.5786C283.549 36.1746 283.59 36.7649 283.602 37.3491C283.614 37.9332 283.597 38.5354 283.55 39.1553H256.564L256.67 40.2645C256.93 41.3375 257.371 42.2797 257.996 43.0903C258.621 43.901 259.358 44.5803 260.207 45.1287C261.055 45.6771 261.999 46.0885 263.036 46.3628C264.074 46.637 265.123 46.7743 266.184 46.7743C266.824 46.7743 284.798 46.7141 299.173 46.6376C308.631 46.5872 316.531 46.5296 316.913 46.4776H352.06V56.3822L359 63.3418L330.795 91.6251L330.796 91.6257L323.83 98.6111L304.808 79.5372L311.774 72.5518L323.829 84.6397L342.208 66.209V56.3558H299.173V56.3401C288.051 56.3833 267.2 56.3244 265.936 56.3244C262.753 56.3244 259.924 55.7932 257.449 54.7321C254.973 53.6711 252.892 52.2347 251.206 50.4226C249.52 48.6104 248.235 46.488 247.351 44.0559C246.467 41.6237 246.025 39.0485 246.025 36.3302C246.025 33.6119 246.49 31.0599 247.422 28.6754C248.353 26.2909 249.668 24.2107 251.365 22.4342C253.063 20.6577 255.091 19.2566 257.449 18.2313C259.806 17.206 262.423 16.6929 265.3 16.6929ZM265.017 25.6351C263.696 25.6351 262.571 25.7963 261.64 26.1182C260.708 26.44 259.924 26.881 259.287 27.4414C258.651 28.0016 258.144 28.6397 257.767 29.3549C257.39 30.0702 257.094 30.8216 256.882 31.6085H272.196C272.031 30.7977 271.796 30.0345 271.489 29.3191C271.182 28.6039 270.758 27.9721 270.216 27.4238C269.674 26.8754 268.984 26.4401 268.147 26.1182C267.31 25.7963 266.266 25.6351 265.017 25.6351Z" fill="#FFFEFE"/>
<path fill-rule="evenodd" clip-rule="evenodd" d="M133.015 16.8203C135.941 16.8203 138.531 17.3127 140.785 18.2972C143.063 19.2576 144.981 20.6025 146.54 22.3313C148.099 24.0361 149.298 26.0528 150.137 28.3818C150.976 30.6869 151.432 33.1724 151.504 35.8377C151.576 36.4379 151.612 37.0381 151.612 37.6383C151.636 38.2146 151.624 38.8152 151.576 39.4395H124.131L124.239 40.5563C124.503 41.6367 124.946 42.5852 125.57 43.4015C126.217 44.2178 126.973 44.9021 127.836 45.4543C128.699 46.0065 129.658 46.4272 130.713 46.7154C131.768 46.9795 132.836 47.1112 133.915 47.1112C134.994 47.1112 136.013 47.0512 136.972 46.9312C137.955 46.7871 138.903 46.6071 139.814 46.391C140.725 46.1509 141.612 45.8867 142.476 45.5986C143.339 45.2865 144.214 44.9623 145.101 44.6262L149.058 52.0099C147.691 52.8503 146.432 53.5703 145.281 54.1706C144.154 54.7469 143.015 55.2275 141.864 55.6117C140.713 55.9959 139.49 56.2718 138.195 56.4399C136.9 56.632 135.389 56.7279 133.663 56.7279C130.426 56.7279 127.548 56.1996 125.03 55.1431C122.512 54.0625 120.39 52.6101 118.663 50.7852C116.961 48.9604 115.654 46.8231 114.743 44.3739C113.856 41.9248 113.412 39.3316 113.412 36.5943C113.412 33.857 113.879 31.2874 114.814 28.8862C115.774 26.4851 117.117 24.3961 118.843 22.6192C120.57 20.8184 122.632 19.4018 125.03 18.3693C127.428 17.3369 130.09 16.8203 133.015 16.8203ZM132.728 25.8246C131.385 25.8246 130.234 25.9928 129.275 26.329C128.339 26.6411 127.548 27.0853 126.901 27.6616C126.253 28.2138 125.737 28.8504 125.354 29.5707C124.97 30.291 124.67 31.0476 124.455 31.84H140.03C139.862 31.0236 139.622 30.2547 139.31 29.5343C138.998 28.8141 138.567 28.178 138.015 27.6258C137.464 27.0735 136.756 26.6411 135.893 26.329C135.054 25.9929 133.999 25.8246 132.728 25.8246Z" fill="#FFFEFE"/>
<path d="M92.0755 17.3247C94.0898 17.2287 96.0443 17.4569 97.9388 18.0092C99.8331 18.5614 101.632 19.3898 103.334 20.4943H110.492V31.3356H100.565C99.5336 30.039 98.3826 29.0665 97.1117 28.4182C95.8408 27.7459 94.342 27.4577 92.6155 27.5537C91.2247 27.4576 89.9534 27.6494 88.8023 28.1296C87.6754 28.6098 86.6924 29.2823 85.8531 30.1467C85.0378 31.0111 84.4021 32.0441 83.9465 33.2447C83.491 34.4212 83.263 35.7538 83.263 37.2424C83.263 38.5631 83.5026 39.812 83.9822 40.9886C84.4618 42.165 85.1094 43.1852 85.9246 44.0496C86.7639 44.89 87.7473 45.5506 88.8744 46.0309C90.0254 46.5111 91.2727 46.7994 92.6155 46.8954C93.7424 46.7994 94.7614 46.571 95.6725 46.2109C96.6077 45.8267 97.4355 45.3461 98.1549 44.7698C98.8741 44.1696 99.4854 43.5094 99.9889 42.7892C100.516 42.0448 100.924 41.3483 101.212 40.7L111.104 43.4373C110.696 44.8779 109.989 46.3787 108.982 47.9394C107.999 49.5001 106.704 50.9291 105.097 52.2257C103.515 53.4983 101.62 54.5549 99.4137 55.3953C97.2315 56.2357 94.7376 56.6557 91.932 56.6557C89.0784 56.6557 86.4523 56.1398 84.0543 55.1073C81.6563 54.0508 79.5942 52.6219 77.8677 50.821C76.1411 49.0201 74.7864 46.907 73.8032 44.4819C72.844 42.0567 72.364 39.4512 72.364 36.6658C72.3641 33.9046 72.8558 31.3472 73.8389 28.9941C74.8461 26.617 76.225 24.5521 77.9755 22.7993C79.726 21.0224 81.8004 19.6418 84.1984 18.6573C86.6203 17.6728 89.2459 17.2287 92.0755 17.3247Z" fill="#FFFEFE"/>
<path d="M223.923 17.3247C225.937 17.2287 227.891 17.457 229.785 18.0092C231.68 18.5615 233.479 19.3897 235.181 20.4943H242.339V31.3356H232.411C231.38 30.039 230.229 29.0665 228.958 28.4182C227.688 27.7459 226.189 27.4576 224.462 27.5537C223.071 27.4576 221.8 27.6494 220.649 28.1296C219.522 28.6098 218.539 29.2823 217.7 30.1467C216.885 31.0111 216.249 32.0441 215.793 33.2447C215.338 34.4212 215.11 35.7538 215.11 37.2424C215.11 38.5631 215.35 39.812 215.83 40.9886C216.309 42.165 216.957 43.1852 217.772 44.0496C218.611 44.89 219.594 45.5506 220.721 46.0309C221.872 46.5111 223.119 46.7994 224.462 46.8954C225.589 46.7994 226.609 46.5711 227.52 46.2109C228.455 45.8268 229.282 45.3461 230.002 44.7698C230.721 44.1696 231.333 43.5094 231.836 42.7892C232.364 42.0448 232.771 41.3482 233.059 40.7L242.951 43.4373C242.543 44.8779 241.836 46.3787 240.829 47.9394C239.845 49.5001 238.55 50.9291 236.944 52.2257C235.361 53.4983 233.467 54.5549 231.26 55.3953C229.078 56.2357 226.584 56.6557 223.779 56.6557C220.925 56.6557 218.299 56.1398 215.901 55.1073C213.503 54.0508 211.441 52.6218 209.714 50.821C207.988 49.0201 206.633 46.907 205.65 44.4819C204.691 42.0567 204.211 39.4512 204.211 36.6658C204.211 33.9046 204.702 31.3472 205.686 28.9941C206.693 26.6171 208.072 24.5521 209.822 22.7993C211.573 21.0224 213.647 19.6418 216.045 18.6573C218.467 17.6728 221.093 17.2287 223.923 17.3247Z" fill="#FFFEFE"/>
<path d="M24.8429 11.0577H19.0874V45.8866H30.9575C31.2692 45.8866 31.5695 45.8025 31.8572 45.6344C32.1688 45.4423 32.4328 45.2022 32.6486 44.9141C32.8883 44.626 33.0799 44.3135 33.2237 43.9774C33.3676 43.6413 33.4399 43.3171 33.4399 43.005V35.6934H45.0938V55.7554H1.49809V45.8866H7.14524V11.0577H1.49809V1.15251H24.8429V11.0577Z" fill="#FFFEFE"/>
<path d="M65.4525 45.8866H70.6322V55.7554H48.7266V45.8866H54.338V28.3103H48.7266V18.4408H65.4525V45.8866Z" fill="#FFFEFE"/>
<path d="M183.571 17.757C188.055 17.757 191.508 19.0171 193.93 21.5383C196.352 24.0355 197.563 27.6975 197.563 32.5238V45.8866H202.851V55.7554H185.837V34.2887C185.837 32.1998 185.285 30.5672 184.182 29.3906C183.079 28.1901 181.616 27.5894 179.794 27.5894C178.547 27.5894 177.288 27.866 176.017 28.4182C174.746 28.9705 173.511 30.003 172.312 31.5156V45.8866H178.355V55.7554H155.191V45.8866H160.658V28.3097H155.262V18.4408H172.24V21.7189C173.799 20.4943 175.538 19.5337 177.456 18.8373C179.398 18.117 181.437 17.757 183.571 17.757Z" fill="#FFFEFE"/>
<path d="M60.165 0C61.0283 0 61.8437 0.168261 62.6111 0.50442C63.3784 0.840566 64.0499 1.29652 64.6254 1.87276C65.201 2.44904 65.6569 3.13381 65.9926 3.9262C66.3282 4.69449 66.4957 5.52296 66.4957 6.41128C66.4957 7.29956 66.3282 8.13987 65.9926 8.93213C65.6569 9.70047 65.2009 10.3729 64.6254 10.9492C64.0499 11.5255 63.3784 11.982 62.6111 12.3181C61.8437 12.6543 61.0282 12.8226 60.165 12.8226C59.2538 12.8225 58.4024 12.6543 57.6111 12.3181C56.8438 11.982 56.1723 11.5254 55.5968 10.9492C55.0214 10.373 54.5659 9.70041 54.2303 8.93213C53.9186 8.13984 53.7629 7.2996 53.7628 6.41128C53.7628 5.52292 53.9186 4.69453 54.2303 3.9262C54.566 3.13382 55.0213 2.44903 55.5968 1.87276C56.1722 1.29653 56.8439 0.840578 57.6111 0.50442C58.4024 0.168281 59.2538 2.64832e-05 60.165 0Z" fill="#FFFEFE"/>
</svg>
