<svg width="120" height="120" viewBox="0 0 120 120" fill="none" xmlns="http://www.w3.org/2000/svg">
<path d="M0 18.5408C0 8.30099 8.30099 0 18.5408 0H101.459C111.699 0 120 8.30099 120 18.5408V101.459C120 111.699 111.699 120 101.459 120H18.5408C8.30099 120 0 111.699 0 101.459V18.5408Z" fill="#181614"/>
<path d="M94.4881 84.3575H94.3296V90.6439H74.1698L74.1298 83.2588H87.0928V61.2348L94.4881 54.4388V84.3575Z" fill="#FFF6B7"/>
<path d="M47.6094 40.8636H41.2046V79.5173H54.414C54.7609 79.5173 55.0947 79.4238 55.4149 79.2373C55.7618 79.0241 56.0553 78.7576 56.2954 78.4379C56.5623 78.1181 56.7759 77.7715 56.9361 77.3984C57.0961 77.0255 57.1759 76.6659 57.1759 76.3196V73.0148H70.1455V90.4696H21.6309V79.5173H27.9153V40.8636H21.6309V29.8713H47.6094V40.8636Z" fill="#FFF6B7"/>
<path d="M94.3296 30.0371H94.4881V36.4419L99.3991 41.3535L78.2252 62.5279L78.2257 62.5284L72.9967 67.7579L58.7173 53.4783L63.9467 48.2487L72.9958 57.2983L87.0928 43.2008V37.2564H52.058L51.9743 29.8713H94.3296V30.0371Z" fill="#FFF6B7"/>
</svg>
